<svg width="2595" height="1612" xmlns="http://www.w3.org/2000/svg" xmlns:xlink="http://www.w3.org/1999/xlink" overflow="hidden"><defs><clipPath id="clip0"><rect x="1477" y="470" width="2595" height="1612"/></clipPath><clipPath id="clip1"><rect x="1478" y="470" width="2592" height="1609"/></clipPath><clipPath id="clip2"><rect x="1777" y="664" width="2293" height="1345"/></clipPath><clipPath id="clip3"><rect x="1777" y="664" width="2293" height="1345"/></clipPath><clipPath id="clip4"><rect x="1478" y="470" width="2592" height="1609"/></clipPath><clipPath id="clip5"><rect x="1478" y="470" width="2592" height="1609"/></clipPath><clipPath id="clip6"><rect x="1478" y="470" width="2592" height="1609"/></clipPath><clipPath id="clip7"><rect x="1478" y="470" width="2592" height="1609"/></clipPath><clipPath id="clip8"><rect x="1478" y="470" width="2592" height="1609"/></clipPath><clipPath id="clip9"><rect x="1478" y="470" width="2592" height="1609"/></clipPath><clipPath id="clip10"><rect x="1478" y="470" width="2592" height="1609"/></clipPath><clipPath id="clip11"><rect x="1478" y="470" width="2592" height="1609"/></clipPath><clipPath id="clip12"><rect x="1478" y="470" width="2592" height="1609"/></clipPath><clipPath id="clip13"><rect x="1478" y="470" width="2592" height="1609"/></clipPath><clipPath id="clip14"><rect x="1478" y="470" width="2592" height="1609"/></clipPath><clipPath id="clip15"><rect x="1478" y="470" width="2592" height="1609"/></clipPath><clipPath id="clip16"><rect x="1478" y="470" width="2592" height="1609"/></clipPath><clipPath id="clip17"><rect x="1478" y="470" width="2592" height="1609"/></clipPath><clipPath id="clip18"><rect x="1478" y="470" width="2592" height="1609"/></clipPath><clipPath id="clip19"><rect x="1478" y="470" width="2592" height="1609"/></clipPath><clipPath id="clip20"><rect x="1478" y="470" width="2592" height="1609"/></clipPath><clipPath id="clip21"><rect x="1478" y="470" width="2592" height="1609"/></clipPath><clipPath id="clip22"><rect x="1478" y="470" width="2592" height="1609"/></clipPath><clipPath id="clip23"><rect x="1478" y="470" width="2592" height="1609"/></clipPath><clipPath id="clip24"><rect x="1478" y="470" width="2592" height="1609"/></clipPath><clipPath id="clip25"><rect x="1478" y="470" width="2592" height="1609"/></clipPath></defs><g clip-path="url(#clip0)" transform="translate(-1477 -470)"><rect x="1478" y="471" width="2592" height="1609" fill="#FFFFFF"/><g clip-path="url(#clip1)"><path d="M1777.5 2006.5 4070.5 2006.5M1777.5 1782.56 4070.5 1782.56M1777.5 1558.55 4070.5 1558.55M1777.5 1111.54 4070.5 1111.54M1777.5 888.529 4070.5 888.529M1777.5 664.5 4070.5 664.5" stroke="#D9D9D9" stroke-width="3.4375" stroke-linejoin="round" stroke-miterlimit="10" fill="none"/></g><g clip-path="url(#clip2)"><path d="M3716.12 1334.04 3799.12 1334.04 3799.12 1335.04 3716.12 1335.04ZM3924.13 1334.04 4007.13 1334.04 4007.13 1335.04 3924.13 1335.04Z" fill="#4472C4"/></g><g clip-path="url(#clip3)"><path d="M1840.06 1738.06 1924.06 1738.06 1924.06 1335.04 1840.06 1335.04ZM3924.13 888.029 4007.13 888.029 4007.13 1335.04 3924.13 1335.04Z" fill="#00B0F0"/></g><g clip-path="url(#clip4)"><path d="M1777.5 1335.5 4070.5 1335.5" stroke="#D9D9D9" stroke-width="3.4375" stroke-linejoin="round" stroke-miterlimit="10" fill="none" fill-rule="evenodd"/></g><g clip-path="url(#clip5)"><text fill="#595959" font-family="Calibri,Calibri_MSFontService,sans-serif" font-weight="400" font-size="73" transform="matrix(1 0 0 1 1517.13 2027)">-$15m</text></g><g clip-path="url(#clip6)"><text fill="#595959" font-family="Calibri,Calibri_MSFontService,sans-serif" font-weight="400" font-size="73" transform="matrix(1 0 0 1 1517.13 1804)">-$10m</text></g><g clip-path="url(#clip7)"><text fill="#595959" font-family="Calibri,Calibri_MSFontService,sans-serif" font-weight="400" font-size="73" transform="matrix(1 0 0 1 1554.31 1580)">-$5m</text></g><g clip-path="url(#clip8)"><text fill="#595959" font-family="Calibri,Calibri_MSFontService,sans-serif" font-weight="400" font-size="73" transform="matrix(1 0 0 1 1576.76 1357)">$0m</text></g><g clip-path="url(#clip9)"><text fill="#595959" font-family="Calibri,Calibri_MSFontService,sans-serif" font-weight="400" font-size="73" transform="matrix(1 0 0 1 1576.76 1133)">$5m</text></g><g clip-path="url(#clip10)"><text fill="#595959" font-family="Calibri,Calibri_MSFontService,sans-serif" font-weight="400" font-size="73" transform="matrix(1 0 0 1 1539.59 909)">$10m</text></g><g clip-path="url(#clip11)"><text fill="#595959" font-family="Calibri,Calibri_MSFontService,sans-serif" font-weight="400" font-size="73" transform="matrix(1 0 0 1 1539.59 686)">$15m</text></g><g clip-path="url(#clip12)"><text fill="#595959" font-family="Calibri,Calibri_MSFontService,sans-serif" font-weight="400" font-size="73" transform="matrix(1 0 0 1 1863.32 1452)">0</text></g><g clip-path="url(#clip13)"><text fill="#595959" font-family="Calibri,Calibri_MSFontService,sans-serif" font-weight="400" font-size="73" transform="matrix(1 0 0 1 2071.71 1452)">1</text></g><g clip-path="url(#clip14)"><text fill="#595959" font-family="Calibri,Calibri_MSFontService,sans-serif" font-weight="400" font-size="73" transform="matrix(1 0 0 1 2280.1 1452)">2</text></g><g clip-path="url(#clip15)"><text fill="#595959" font-family="Calibri,Calibri_MSFontService,sans-serif" font-weight="400" font-size="73" transform="matrix(1 0 0 1 2488.49 1452)">3</text></g><g clip-path="url(#clip16)"><text fill="#595959" font-family="Calibri,Calibri_MSFontService,sans-serif" font-weight="400" font-size="73" transform="matrix(1 0 0 1 2696.88 1452)">4</text></g><g clip-path="url(#clip17)"><text fill="#595959" font-family="Calibri,Calibri_MSFontService,sans-serif" font-weight="400" font-size="73" transform="matrix(1 0 0 1 2905.27 1452)">5</text></g><g clip-path="url(#clip18)"><text fill="#595959" font-family="Calibri,Calibri_MSFontService,sans-serif" font-weight="400" font-size="73" transform="matrix(1 0 0 1 3113.66 1452)">6</text></g><g clip-path="url(#clip19)"><text fill="#595959" font-family="Calibri,Calibri_MSFontService,sans-serif" font-weight="400" font-size="73" transform="matrix(1 0 0 1 3322.05 1452)">7</text></g><g clip-path="url(#clip20)"><text fill="#595959" font-family="Calibri,Calibri_MSFontService,sans-serif" font-weight="400" font-size="73" transform="matrix(1 0 0 1 3530.44 1452)">8</text></g><g clip-path="url(#clip21)"><text fill="#595959" font-family="Calibri,Calibri_MSFontService,sans-serif" font-weight="400" font-size="73" transform="matrix(1 0 0 1 3738.83 1452)">9</text></g><g clip-path="url(#clip22)"><text fill="#595959" font-family="Calibri,Calibri_MSFontService,sans-serif" font-weight="400" font-size="73" transform="matrix(1 0 0 1 3928.63 1452)">10</text></g><g clip-path="url(#clip23)"><text fill="#595959" font-family="Calibri,Calibri_MSFontService,sans-serif" font-weight="400" font-size="88" transform="matrix(1 0 0 1 2513.47 589)">Bill Cash Flows</text></g><g clip-path="url(#clip24)"><rect x="2620" y="731" width="39.9998" height="39.9999" fill="#00B0F0"/></g><g clip-path="url(#clip25)"><text fill="#595959" font-family="Calibri,Calibri_MSFontService,sans-serif" font-weight="400" font-size="73" transform="matrix(1 0 0 1 2678.23 772)"> Principal</text></g><rect x="1478.5" y="471.5" width="2592" height="1609" stroke="#000000" stroke-width="3.4375" stroke-linejoin="round" stroke-miterlimit="10" fill="none"/></g></svg>