<svg width="2595" height="1612" xmlns="http://www.w3.org/2000/svg" xmlns:xlink="http://www.w3.org/1999/xlink" overflow="hidden"><defs><clipPath id="clip0"><rect x="3777" y="78" width="2595" height="1612"/></clipPath><clipPath id="clip1"><rect x="3777" y="79" width="2592" height="1608"/></clipPath><clipPath id="clip2"><rect x="3777" y="79" width="2592" height="1608"/></clipPath><clipPath id="clip3"><rect x="4072" y="276" width="2296" height="1212"/></clipPath><clipPath id="clip4"><rect x="3777" y="79" width="2592" height="1608"/></clipPath><clipPath id="clip5"><rect x="3777" y="79" width="2592" height="1608"/></clipPath><clipPath id="clip6"><rect x="3777" y="79" width="2592" height="1608"/></clipPath><clipPath id="clip7"><rect x="3777" y="79" width="2592" height="1608"/></clipPath><clipPath id="clip8"><rect x="3777" y="79" width="2592" height="1608"/></clipPath><clipPath id="clip9"><rect x="3777" y="79" width="2592" height="1608"/></clipPath><clipPath id="clip10"><rect x="3777" y="79" width="2592" height="1608"/></clipPath><clipPath id="clip11"><rect x="3777" y="79" width="2592" height="1608"/></clipPath><clipPath id="clip12"><rect x="3777" y="79" width="2592" height="1608"/></clipPath><clipPath id="clip13"><rect x="3777" y="79" width="2592" height="1608"/></clipPath><clipPath id="clip14"><rect x="3777" y="79" width="2592" height="1608"/></clipPath><clipPath id="clip15"><rect x="3777" y="79" width="2592" height="1608"/></clipPath><clipPath id="clip16"><rect x="3777" y="79" width="2592" height="1608"/></clipPath><clipPath id="clip17"><rect x="3777" y="79" width="2592" height="1608"/></clipPath><clipPath id="clip18"><rect x="3777" y="79" width="2592" height="1608"/></clipPath><clipPath id="clip19"><rect x="3777" y="79" width="2592" height="1608"/></clipPath><clipPath id="clip20"><rect x="3777" y="79" width="2592" height="1608"/></clipPath><clipPath id="clip21"><rect x="3777" y="79" width="2592" height="1608"/></clipPath><clipPath id="clip22"><rect x="3777" y="79" width="2592" height="1608"/></clipPath><clipPath id="clip23"><rect x="3777" y="79" width="2592" height="1608"/></clipPath><clipPath id="clip24"><rect x="3777" y="79" width="2592" height="1608"/></clipPath></defs><g clip-path="url(#clip0)" transform="translate(-3777 -78)"><rect x="3778" y="79.0001" width="2592" height="1609" fill="#FFFFFF"/><g clip-path="url(#clip1)"><path d="M4072.5 1334.54 6365.5 1334.54M4072.5 1183.54 6365.5 1183.54M4072.5 1032.53 6365.5 1032.53M4072.5 880.529 6365.5 880.529M4072.5 729.524 6365.5 729.524M4072.5 578.519 6365.5 578.519M4072.5 427.514 6365.5 427.514M4072.5 276.5 6365.5 276.5" stroke="#D9D9D9" stroke-width="3.4375" stroke-linejoin="round" stroke-miterlimit="10" fill="none"/></g><g clip-path="url(#clip2)"><path d="M4072.5 1485.5 6365.5 1485.5" stroke="#D9D9D9" stroke-width="3.4375" stroke-linejoin="round" stroke-miterlimit="10" fill="none" fill-rule="evenodd"/></g><g clip-path="url(#clip3)"><path d="M4177 449 4385.14 587.019 4594.15 714.023 4802.16 829.027 5010.16 935.031 5219.17 1032.03 5427.18 1121.04 5636.19 1203.04 5844.19 1278.04 6052.2 1347.04 6261 1411" stroke="#ED7D31" stroke-width="10.3125" stroke-linecap="round" stroke-linejoin="round" stroke-miterlimit="10" fill="none"/></g><g clip-path="url(#clip4)"><text fill="#595959" font-family="Calibri,Calibri_MSFontService,sans-serif" font-weight="400" font-size="73" transform="matrix(1 0 0 1 3871.87 1506)">$7m</text></g><g clip-path="url(#clip5)"><text fill="#595959" font-family="Calibri,Calibri_MSFontService,sans-serif" font-weight="400" font-size="73" transform="matrix(1 0 0 1 3871.87 1355)">$8m</text></g><g clip-path="url(#clip6)"><text fill="#595959" font-family="Calibri,Calibri_MSFontService,sans-serif" font-weight="400" font-size="73" transform="matrix(1 0 0 1 3871.87 1204)">$9m</text></g><g clip-path="url(#clip7)"><text fill="#595959" font-family="Calibri,Calibri_MSFontService,sans-serif" font-weight="400" font-size="73" transform="matrix(1 0 0 1 3834.7 1053)">$10m</text></g><g clip-path="url(#clip8)"><text fill="#595959" font-family="Calibri,Calibri_MSFontService,sans-serif" font-weight="400" font-size="73" transform="matrix(1 0 0 1 3834.7 902)">$11m</text></g><g clip-path="url(#clip9)"><text fill="#595959" font-family="Calibri,Calibri_MSFontService,sans-serif" font-weight="400" font-size="73" transform="matrix(1 0 0 1 3834.7 751)">$12m</text></g><g clip-path="url(#clip10)"><text fill="#595959" font-family="Calibri,Calibri_MSFontService,sans-serif" font-weight="400" font-size="73" transform="matrix(1 0 0 1 3834.7 600)">$13m</text></g><g clip-path="url(#clip11)"><text fill="#595959" font-family="Calibri,Calibri_MSFontService,sans-serif" font-weight="400" font-size="73" transform="matrix(1 0 0 1 3834.7 449)">$14m</text></g><g clip-path="url(#clip12)"><text fill="#595959" font-family="Calibri,Calibri_MSFontService,sans-serif" font-weight="400" font-size="73" transform="matrix(1 0 0 1 3834.7 298)">$15m</text></g><g clip-path="url(#clip13)"><text fill="#595959" font-family="Calibri,Calibri_MSFontService,sans-serif" font-weight="400" font-size="73" transform="matrix(1 0 0 1 4132.21 1602)">5%</text></g><g clip-path="url(#clip14)"><text fill="#595959" font-family="Calibri,Calibri_MSFontService,sans-serif" font-weight="400" font-size="73" transform="matrix(1 0 0 1 4340.6 1602)">6%</text></g><g clip-path="url(#clip15)"><text fill="#595959" font-family="Calibri,Calibri_MSFontService,sans-serif" font-weight="400" font-size="73" transform="matrix(1 0 0 1 4548.99 1602)">7%</text></g><g clip-path="url(#clip16)"><text fill="#595959" font-family="Calibri,Calibri_MSFontService,sans-serif" font-weight="400" font-size="73" transform="matrix(1 0 0 1 4757.38 1602)">8%</text></g><g clip-path="url(#clip17)"><text fill="#595959" font-family="Calibri,Calibri_MSFontService,sans-serif" font-weight="400" font-size="73" transform="matrix(1 0 0 1 4965.77 1602)">9%</text></g><g clip-path="url(#clip18)"><text fill="#595959" font-family="Calibri,Calibri_MSFontService,sans-serif" font-weight="400" font-size="73" transform="matrix(1 0 0 1 5155.57 1602)">10%</text></g><g clip-path="url(#clip19)"><text fill="#595959" font-family="Calibri,Calibri_MSFontService,sans-serif" font-weight="400" font-size="73" transform="matrix(1 0 0 1 5363.96 1602)">11%</text></g><g clip-path="url(#clip20)"><text fill="#595959" font-family="Calibri,Calibri_MSFontService,sans-serif" font-weight="400" font-size="73" transform="matrix(1 0 0 1 5572.35 1602)">12%</text></g><g clip-path="url(#clip21)"><text fill="#595959" font-family="Calibri,Calibri_MSFontService,sans-serif" font-weight="400" font-size="73" transform="matrix(1 0 0 1 5780.74 1602)">13%</text></g><g clip-path="url(#clip22)"><text fill="#595959" font-family="Calibri,Calibri_MSFontService,sans-serif" font-weight="400" font-size="73" transform="matrix(1 0 0 1 5989.13 1602)">14%</text></g><g clip-path="url(#clip23)"><text fill="#595959" font-family="Calibri,Calibri_MSFontService,sans-serif" font-weight="400" font-size="73" transform="matrix(1 0 0 1 6197.52 1602)">15%</text></g><g clip-path="url(#clip24)"><text fill="#595959" font-family="Calibri,Calibri_MSFontService,sans-serif" font-weight="400" font-size="88" transform="matrix(1 0 0 1 4439.44 197)">10% $10m Bond PV vs Interest Rate</text></g><rect x="3778.5" y="79.4999" width="2592" height="1609" stroke="#000000" stroke-width="3.4375" stroke-linejoin="round" stroke-miterlimit="10" fill="none"/></g></svg>