<svg width="2595" height="1612" xmlns="http://www.w3.org/2000/svg" xmlns:xlink="http://www.w3.org/1999/xlink" overflow="hidden"><defs><clipPath id="clip0"><rect x="1463" y="253" width="2595" height="1612"/></clipPath><clipPath id="clip1"><rect x="1464" y="254" width="2592" height="1609"/></clipPath><clipPath id="clip2"><rect x="1763" y="448" width="2293" height="1345"/></clipPath><clipPath id="clip3"><rect x="1763" y="448" width="2293" height="1345"/></clipPath><clipPath id="clip4"><rect x="1763" y="448" width="2293" height="1345"/></clipPath><clipPath id="clip5"><rect x="1464" y="254" width="2592" height="1609"/></clipPath><clipPath id="clip6"><rect x="1464" y="254" width="2592" height="1609"/></clipPath><clipPath id="clip7"><rect x="1464" y="254" width="2592" height="1609"/></clipPath><clipPath id="clip8"><rect x="1464" y="254" width="2592" height="1609"/></clipPath><clipPath id="clip9"><rect x="1464" y="254" width="2592" height="1609"/></clipPath><clipPath id="clip10"><rect x="1464" y="254" width="2592" height="1609"/></clipPath><clipPath id="clip11"><rect x="1464" y="254" width="2592" height="1609"/></clipPath><clipPath id="clip12"><rect x="1464" y="254" width="2592" height="1609"/></clipPath><clipPath id="clip13"><rect x="1464" y="254" width="2592" height="1609"/></clipPath><clipPath id="clip14"><rect x="1464" y="254" width="2592" height="1609"/></clipPath><clipPath id="clip15"><rect x="1464" y="254" width="2592" height="1609"/></clipPath><clipPath id="clip16"><rect x="1464" y="254" width="2592" height="1609"/></clipPath><clipPath id="clip17"><rect x="1464" y="254" width="2592" height="1609"/></clipPath><clipPath id="clip18"><rect x="1464" y="254" width="2592" height="1609"/></clipPath><clipPath id="clip19"><rect x="1464" y="254" width="2592" height="1609"/></clipPath><clipPath id="clip20"><rect x="1464" y="254" width="2592" height="1609"/></clipPath><clipPath id="clip21"><rect x="1464" y="254" width="2592" height="1609"/></clipPath><clipPath id="clip22"><rect x="1464" y="254" width="2592" height="1609"/></clipPath><clipPath id="clip23"><rect x="1464" y="254" width="2592" height="1609"/></clipPath><clipPath id="clip24"><rect x="1464" y="254" width="2592" height="1609"/></clipPath><clipPath id="clip25"><rect x="1464" y="254" width="2592" height="1609"/></clipPath><clipPath id="clip26"><rect x="1464" y="254" width="2592" height="1609"/></clipPath><clipPath id="clip27"><rect x="1464" y="254" width="2592" height="1609"/></clipPath><clipPath id="clip28"><rect x="1464" y="254" width="2592" height="1609"/></clipPath></defs><g clip-path="url(#clip0)" transform="translate(-1463 -253)"><rect x="1464" y="254" width="2592" height="1609" fill="#FFFFFF"/><g clip-path="url(#clip1)"><path d="M1763.5 1789.5 4056.5 1789.5M1763.5 1565.55 4056.5 1565.55M1763.5 1342.54 4056.5 1342.54M1763.5 895.53 4056.5 895.53M1763.5 671.522 4056.5 671.522M1763.5 448.5 4056.5 448.5" stroke="#D9D9D9" stroke-width="3.4375" stroke-linejoin="round" stroke-miterlimit="10" fill="none"/></g><g clip-path="url(#clip2)"><path d="M3702.12 1118.04 3785.12 1118.04 3785.12 1119.04 3702.12 1119.04ZM3910.13 1118.04 3994.13 1118.04 3994.13 1119.04 3910.13 1119.04Z" fill="#4472C4"/></g><g clip-path="url(#clip3)"><path d="M2035.07 1074.04 2118.07 1074.04 2118.07 1119.04 2035.07 1119.04ZM2243.07 1074.04 2327.08 1074.04 2327.08 1119.04 2243.07 1119.04ZM2452.08 1074.04 2535.08 1074.04 2535.08 1119.04 2452.08 1119.04ZM2660.09 1074.04 2743.09 1074.04 2743.09 1119.04 2660.09 1119.04ZM2868.09 1074.04 2952.1 1074.04 2952.1 1119.04 2868.09 1119.04ZM3077.1 1074.04 3160.1 1074.04 3160.1 1119.04 3077.1 1119.04ZM3285.11 1074.04 3368.11 1074.04 3368.11 1119.04 3285.11 1119.04ZM3493.11 1074.04 3577.12 1074.04 3577.12 1119.04 3493.11 1119.04ZM3702.12 1074.04 3785.12 1074.04 3785.12 1119.04 3702.12 1119.04ZM3910.13 1074.04 3994.13 1074.04 3994.13 1119.04 3910.13 1119.04Z" fill="#FFC000"/></g><g clip-path="url(#clip4)"><path d="M1826.06 1566.05 1910.06 1566.05 1910.06 1119.04 1826.06 1119.04ZM3910.13 627.021 3994.13 627.021 3994.13 1074.04 3910.13 1074.04Z" fill="#00B0F0"/></g><g clip-path="url(#clip5)"><path d="M1763.5 1118.5 4056.5 1118.5" stroke="#D9D9D9" stroke-width="3.4375" stroke-linejoin="round" stroke-miterlimit="10" fill="none" fill-rule="evenodd"/></g><g clip-path="url(#clip6)"><text fill="#595959" font-family="Calibri,Calibri_MSFontService,sans-serif" font-weight="400" font-size="73" transform="matrix(1 0 0 1 1503.38 1811)">-$15m</text></g><g clip-path="url(#clip7)"><text fill="#595959" font-family="Calibri,Calibri_MSFontService,sans-serif" font-weight="400" font-size="73" transform="matrix(1 0 0 1 1503.38 1587)">-$10m</text></g><g clip-path="url(#clip8)"><text fill="#595959" font-family="Calibri,Calibri_MSFontService,sans-serif" font-weight="400" font-size="73" transform="matrix(1 0 0 1 1540.56 1364)">-$5m</text></g><g clip-path="url(#clip9)"><text fill="#595959" font-family="Calibri,Calibri_MSFontService,sans-serif" font-weight="400" font-size="73" transform="matrix(1 0 0 1 1563.01 1140)">$0m</text></g><g clip-path="url(#clip10)"><text fill="#595959" font-family="Calibri,Calibri_MSFontService,sans-serif" font-weight="400" font-size="73" transform="matrix(1 0 0 1 1563.01 916)">$5m</text></g><g clip-path="url(#clip11)"><text fill="#595959" font-family="Calibri,Calibri_MSFontService,sans-serif" font-weight="400" font-size="73" transform="matrix(1 0 0 1 1525.84 693)">$10m</text></g><g clip-path="url(#clip12)"><text fill="#595959" font-family="Calibri,Calibri_MSFontService,sans-serif" font-weight="400" font-size="73" transform="matrix(1 0 0 1 1525.84 469)">$15m</text></g><g clip-path="url(#clip13)"><text fill="#595959" font-family="Calibri,Calibri_MSFontService,sans-serif" font-weight="400" font-size="73" transform="matrix(1 0 0 1 1849.57 1235)">0</text></g><g clip-path="url(#clip14)"><text fill="#595959" font-family="Calibri,Calibri_MSFontService,sans-serif" font-weight="400" font-size="73" transform="matrix(1 0 0 1 2057.96 1235)">1</text></g><g clip-path="url(#clip15)"><text fill="#595959" font-family="Calibri,Calibri_MSFontService,sans-serif" font-weight="400" font-size="73" transform="matrix(1 0 0 1 2266.35 1235)">2</text></g><g clip-path="url(#clip16)"><text fill="#595959" font-family="Calibri,Calibri_MSFontService,sans-serif" font-weight="400" font-size="73" transform="matrix(1 0 0 1 2474.74 1235)">3</text></g><g clip-path="url(#clip17)"><text fill="#595959" font-family="Calibri,Calibri_MSFontService,sans-serif" font-weight="400" font-size="73" transform="matrix(1 0 0 1 2683.13 1235)">4</text></g><g clip-path="url(#clip18)"><text fill="#595959" font-family="Calibri,Calibri_MSFontService,sans-serif" font-weight="400" font-size="73" transform="matrix(1 0 0 1 2891.52 1235)">5</text></g><g clip-path="url(#clip19)"><text fill="#595959" font-family="Calibri,Calibri_MSFontService,sans-serif" font-weight="400" font-size="73" transform="matrix(1 0 0 1 3099.91 1235)">6</text></g><g clip-path="url(#clip20)"><text fill="#595959" font-family="Calibri,Calibri_MSFontService,sans-serif" font-weight="400" font-size="73" transform="matrix(1 0 0 1 3308.3 1235)">7</text></g><g clip-path="url(#clip21)"><text fill="#595959" font-family="Calibri,Calibri_MSFontService,sans-serif" font-weight="400" font-size="73" transform="matrix(1 0 0 1 3516.69 1235)">8</text></g><g clip-path="url(#clip22)"><text fill="#595959" font-family="Calibri,Calibri_MSFontService,sans-serif" font-weight="400" font-size="73" transform="matrix(1 0 0 1 3725.08 1235)">9</text></g><g clip-path="url(#clip23)"><text fill="#595959" font-family="Calibri,Calibri_MSFontService,sans-serif" font-weight="400" font-size="73" transform="matrix(1 0 0 1 3914.88 1235)">10</text></g><g clip-path="url(#clip24)"><text fill="#595959" font-family="Calibri,Calibri_MSFontService,sans-serif" font-weight="400" font-size="88" transform="matrix(1 0 0 1 2460.55 373)">Bond Cash Flows</text></g><g clip-path="url(#clip25)"><rect x="2427" y="514" width="40.0002" height="40.0002" fill="#FFC000"/></g><g clip-path="url(#clip26)"><text fill="#595959" font-family="Calibri,Calibri_MSFontService,sans-serif" font-weight="400" font-size="73" transform="matrix(1 0 0 1 2485.41 555)">Coupon</text></g><g clip-path="url(#clip27)"><rect x="2785" y="514" width="39.9998" height="40.0002" fill="#00B0F0"/></g><g clip-path="url(#clip28)"><text fill="#595959" font-family="Calibri,Calibri_MSFontService,sans-serif" font-weight="400" font-size="73" transform="matrix(1 0 0 1 2843.56 555)"> Principal</text></g><rect x="1464.5" y="254.5" width="2592" height="1609" stroke="#000000" stroke-width="3.4375" stroke-linejoin="round" stroke-miterlimit="10" fill="none"/></g></svg>