<svg width="2595" height="1612" xmlns="http://www.w3.org/2000/svg" xmlns:xlink="http://www.w3.org/1999/xlink" overflow="hidden"><defs><clipPath id="clip0"><rect x="4660" y="2491" width="2595" height="1612"/></clipPath><clipPath id="clip1"><rect x="4661" y="2492" width="2592" height="1608"/></clipPath><clipPath id="clip2"><rect x="4661" y="2492" width="2592" height="1608"/></clipPath><clipPath id="clip3"><rect x="4956" y="2689" width="2296" height="1212"/></clipPath><clipPath id="clip4"><rect x="4956" y="2689" width="2296" height="1212"/></clipPath><clipPath id="clip5"><rect x="4661" y="2492" width="2592" height="1608"/></clipPath><clipPath id="clip6"><rect x="4661" y="2492" width="2592" height="1608"/></clipPath><clipPath id="clip7"><rect x="4661" y="2492" width="2592" height="1608"/></clipPath><clipPath id="clip8"><rect x="4661" y="2492" width="2592" height="1608"/></clipPath><clipPath id="clip9"><rect x="4661" y="2492" width="2592" height="1608"/></clipPath><clipPath id="clip10"><rect x="4661" y="2492" width="2592" height="1608"/></clipPath><clipPath id="clip11"><rect x="4661" y="2492" width="2592" height="1608"/></clipPath><clipPath id="clip12"><rect x="4661" y="2492" width="2592" height="1608"/></clipPath><clipPath id="clip13"><rect x="4661" y="2492" width="2592" height="1608"/></clipPath><clipPath id="clip14"><rect x="4661" y="2492" width="2592" height="1608"/></clipPath><clipPath id="clip15"><rect x="4661" y="2492" width="2592" height="1608"/></clipPath><clipPath id="clip16"><rect x="4661" y="2492" width="2592" height="1608"/></clipPath><clipPath id="clip17"><rect x="4661" y="2492" width="2592" height="1608"/></clipPath><clipPath id="clip18"><rect x="4661" y="2492" width="2592" height="1608"/></clipPath><clipPath id="clip19"><rect x="4661" y="2492" width="2592" height="1608"/></clipPath><clipPath id="clip20"><rect x="4661" y="2492" width="2592" height="1608"/></clipPath><clipPath id="clip21"><rect x="4661" y="2492" width="2592" height="1608"/></clipPath><clipPath id="clip22"><rect x="4661" y="2492" width="2592" height="1608"/></clipPath><clipPath id="clip23"><rect x="4661" y="2492" width="2592" height="1608"/></clipPath><clipPath id="clip24"><rect x="4661" y="2492" width="2592" height="1608"/></clipPath><clipPath id="clip25"><rect x="4661" y="2492" width="2592" height="1608"/></clipPath><clipPath id="clip26"><rect x="4661" y="2492" width="2592" height="1608"/></clipPath><clipPath id="clip27"><rect x="4661" y="2492" width="2592" height="1608"/></clipPath><clipPath id="clip28"><rect x="4661" y="2492" width="2592" height="1608"/></clipPath><clipPath id="clip29"><rect x="4661" y="2492" width="2592" height="1608"/></clipPath></defs><g clip-path="url(#clip0)" transform="translate(-4660 -2491)"><rect x="4661" y="2492" width="2592" height="1609" fill="#FFFFFF"/><g clip-path="url(#clip1)"><path d="M4956.5 3747.62 7248.5 3747.62M4956.5 3596.62 7248.5 3596.62M4956.5 3445.61 7248.5 3445.61M4956.5 3293.61 7248.5 3293.61M4956.5 3142.6 7248.5 3142.6M4956.5 2991.6 7248.5 2991.6M4956.5 2840.59 7248.5 2840.59M4956.5 2689.5 7248.5 2689.5" stroke="#D9D9D9" stroke-width="3.4375" stroke-linejoin="round" stroke-miterlimit="10" fill="none"/></g><g clip-path="url(#clip2)"><path d="M4956.5 3898.5 7248.5 3898.5" stroke="#D9D9D9" stroke-width="3.4375" stroke-linejoin="round" stroke-miterlimit="10" fill="none" fill-rule="evenodd"/></g><g clip-path="url(#clip3)"><path d="M5060 2711 5269.17 2849.09 5477.18 2976.1 5685.19 3091.1 5894.19 3197.1 6102.2 3294.11 6311.21 3383.11 6519.21 3465.11 6727.22 3540.12 6936.23 3609.12 7144 3673" stroke="#ED7D31" stroke-width="10.3125" stroke-linecap="round" stroke-linejoin="round" stroke-miterlimit="10" fill="none"/></g><g clip-path="url(#clip4)"><path d="M5060 2830 5269.17 2923.1 5477.18 3016.1 5685.19 3108.1 5894.19 3201.1 6102.2 3294.11 6311.21 3387.11 6519.21 3479.11 6727.22 3572.12 6936.23 3665.12 7144 3758" stroke="#4472C4" stroke-width="10.3125" stroke-linecap="round" stroke-linejoin="round" stroke-miterlimit="10" fill="none"/></g><g clip-path="url(#clip5)"><text fill="#595959" font-family="Calibri,Calibri_MSFontService,sans-serif" font-weight="400" font-size="73" transform="matrix(1 0 0 1 4755.31 3920)">$6m</text></g><g clip-path="url(#clip6)"><text fill="#595959" font-family="Calibri,Calibri_MSFontService,sans-serif" font-weight="400" font-size="73" transform="matrix(1 0 0 1 4755.31 3769)">$7m</text></g><g clip-path="url(#clip7)"><text fill="#595959" font-family="Calibri,Calibri_MSFontService,sans-serif" font-weight="400" font-size="73" transform="matrix(1 0 0 1 4755.31 3617)">$8m</text></g><g clip-path="url(#clip8)"><text fill="#595959" font-family="Calibri,Calibri_MSFontService,sans-serif" font-weight="400" font-size="73" transform="matrix(1 0 0 1 4755.31 3466)">$9m</text></g><g clip-path="url(#clip9)"><text fill="#595959" font-family="Calibri,Calibri_MSFontService,sans-serif" font-weight="400" font-size="73" transform="matrix(1 0 0 1 4718.14 3315)">$10m</text></g><g clip-path="url(#clip10)"><text fill="#595959" font-family="Calibri,Calibri_MSFontService,sans-serif" font-weight="400" font-size="73" transform="matrix(1 0 0 1 4718.14 3164)">$11m</text></g><g clip-path="url(#clip11)"><text fill="#595959" font-family="Calibri,Calibri_MSFontService,sans-serif" font-weight="400" font-size="73" transform="matrix(1 0 0 1 4718.14 3013)">$12m</text></g><g clip-path="url(#clip12)"><text fill="#595959" font-family="Calibri,Calibri_MSFontService,sans-serif" font-weight="400" font-size="73" transform="matrix(1 0 0 1 4718.14 2862)">$13m</text></g><g clip-path="url(#clip13)"><text fill="#595959" font-family="Calibri,Calibri_MSFontService,sans-serif" font-weight="400" font-size="73" transform="matrix(1 0 0 1 4718.14 2711)">$14m</text></g><g clip-path="url(#clip14)"><text fill="#595959" font-family="Calibri,Calibri_MSFontService,sans-serif" font-weight="400" font-size="73" transform="matrix(1 0 0 1 5015.66 4015)">5%</text></g><g clip-path="url(#clip15)"><text fill="#595959" font-family="Calibri,Calibri_MSFontService,sans-serif" font-weight="400" font-size="73" transform="matrix(1 0 0 1 5224.05 4015)">6%</text></g><g clip-path="url(#clip16)"><text fill="#595959" font-family="Calibri,Calibri_MSFontService,sans-serif" font-weight="400" font-size="73" transform="matrix(1 0 0 1 5432.44 4015)">7%</text></g><g clip-path="url(#clip17)"><text fill="#595959" font-family="Calibri,Calibri_MSFontService,sans-serif" font-weight="400" font-size="73" transform="matrix(1 0 0 1 5640.84 4015)">8%</text></g><g clip-path="url(#clip18)"><text fill="#595959" font-family="Calibri,Calibri_MSFontService,sans-serif" font-weight="400" font-size="73" transform="matrix(1 0 0 1 5849.23 4015)">9%</text></g><g clip-path="url(#clip19)"><text fill="#595959" font-family="Calibri,Calibri_MSFontService,sans-serif" font-weight="400" font-size="73" transform="matrix(1 0 0 1 6039.04 4015)">10%</text></g><g clip-path="url(#clip20)"><text fill="#595959" font-family="Calibri,Calibri_MSFontService,sans-serif" font-weight="400" font-size="73" transform="matrix(1 0 0 1 6247.43 4015)">11%</text></g><g clip-path="url(#clip21)"><text fill="#595959" font-family="Calibri,Calibri_MSFontService,sans-serif" font-weight="400" font-size="73" transform="matrix(1 0 0 1 6455.83 4015)">12%</text></g><g clip-path="url(#clip22)"><text fill="#595959" font-family="Calibri,Calibri_MSFontService,sans-serif" font-weight="400" font-size="73" transform="matrix(1 0 0 1 6664.22 4015)">13%</text></g><g clip-path="url(#clip23)"><text fill="#595959" font-family="Calibri,Calibri_MSFontService,sans-serif" font-weight="400" font-size="73" transform="matrix(1 0 0 1 6872.62 4015)">14%</text></g><g clip-path="url(#clip24)"><text fill="#595959" font-family="Calibri,Calibri_MSFontService,sans-serif" font-weight="400" font-size="73" transform="matrix(1 0 0 1 7081.01 4015)">15%</text></g><g clip-path="url(#clip25)"><text fill="#595959" font-family="Calibri,Calibri_MSFontService,sans-serif" font-weight="400" font-size="88" transform="matrix(1 0 0 1 5402.06 2611)">10% $10m Bond PV &amp; Duration</text></g><g clip-path="url(#clip26)"><path d="M5421 2736 5509 2736" stroke="#ED7D31" stroke-width="10.3125" stroke-linecap="round" stroke-linejoin="round" stroke-miterlimit="10" fill="none" fill-rule="evenodd"/></g><g clip-path="url(#clip27)"><text fill="#595959" font-family="Calibri,Calibri_MSFontService,sans-serif" font-weight="400" font-size="73" transform="matrix(1 0 0 1 5518.25 2757)">Actual PV</text></g><g clip-path="url(#clip28)"><path d="M5887 2736 5975 2736" stroke="#4472C4" stroke-width="10.3125" stroke-linecap="round" stroke-linejoin="round" stroke-miterlimit="10" fill="none" fill-rule="evenodd"/></g><g clip-path="url(#clip29)"><text fill="#595959" font-family="Calibri,Calibri_MSFontService,sans-serif" font-weight="400" font-size="73" transform="matrix(1 0 0 1 5984.36 2757)">PV based on ModD</text></g><rect x="4661.5" y="2492.5" width="2592" height="1609" stroke="#000000" stroke-width="3.4375" stroke-linejoin="round" stroke-miterlimit="10" fill="none"/></g></svg>